<svg xmlns="http://www.w3.org/2000/svg" xmlns:xlink="http://www.w3.org/1999/xlink" width="1366" zoomAndPan="magnify" viewBox="0 0 1024.5 486.749983" height="768" preserveAspectRatio="xMidYMid meet" version="1.0"><defs><g/><clipPath id="000c39d085"><path d="M 65 64 L 295.679688 64 L 295.679688 422 L 65 422 Z M 65 64 " clip-rule="nonzero"/></clipPath></defs><g clip-path="url(#000c39d085)"><path fill="#030303" d="M 236.175781 420.691406 C 232.9375 419.925781 224.9375 416.457031 217.492188 412.589844 C 210.328125 408.871094 202.765625 405.003906 200.683594 404 C 198.605469 402.996094 196.910156 401.773438 196.917969 401.285156 C 196.925781 400.792969 198.300781 393.1875 199.96875 384.382812 L 203.003906 368.367188 L 200.222656 363.71875 C 196.453125 357.414062 189.699219 349.191406 188.765625 349.765625 C 188.347656 350.027344 187.996094 351.914062 187.988281 353.964844 C 187.957031 359.351562 185.027344 371.816406 181.867188 379.988281 C 170.480469 409.4375 143.832031 423.15625 117.300781 413.226562 C 106.839844 409.3125 98.097656 400.542969 92.425781 388.261719 C 85.925781 374.199219 83.890625 358.046875 86.550781 341.679688 C 87.894531 333.429688 92.804688 321.269531 98.710938 311.566406 L 103.503906 303.695312 L 100.433594 296.886719 C 92.925781 280.234375 87.347656 260.414062 85.671875 244.453125 C 84.746094 235.613281 82.347656 230.371094 73.980469 218.894531 C 70.777344 214.5 67.496094 208.933594 66.691406 206.523438 C 63.984375 198.433594 64.949219 185.042969 69.820312 163.058594 C 71.609375 154.984375 71.648438 154.136719 70.355469 151.429688 C 68.085938 146.671875 66.699219 135.535156 67.257812 126.578125 C 67.816406 117.625 69.578125 111.546875 72.527344 108.40625 C 74.320312 106.496094 74.367188 106.054688 73.367188 100.609375 C 72.21875 94.386719 72.652344 90.859375 74.882812 88.296875 C 75.921875 87.105469 76.304688 84.746094 76.320312 79.402344 C 76.351562 70.632812 78.292969 67.035156 83.90625 65.351562 C 88.710938 63.914062 91.75 65.347656 97.597656 71.808594 C 100.195312 74.675781 102.621094 77.023438 102.996094 77.023438 C 103.367188 77.023438 104.457031 76.023438 105.421875 74.796875 C 109.09375 70.132812 117.515625 72.988281 126.203125 81.851562 C 132.886719 88.664062 141.800781 96.480469 153.339844 105.644531 C 162.851562 113.199219 166.683594 117.222656 169.355469 122.460938 C 171.679688 127.015625 173.324219 127.644531 175.539062 124.832031 C 178.867188 120.601562 187.0625 118.246094 189.605469 120.792969 C 190.195312 121.378906 190.675781 123.015625 190.675781 124.433594 C 190.675781 129.824219 194.480469 145.429688 197.839844 153.835938 C 199.769531 158.65625 204.144531 167.542969 207.566406 173.585938 C 219.101562 193.953125 221.523438 200.714844 222.664062 215.722656 C 223.136719 221.890625 224.3125 229.535156 225.28125 232.710938 C 228.53125 243.359375 230.710938 252.984375 232.984375 266.691406 C 234.222656 274.175781 235.613281 281.71875 236.074219 283.457031 C 237.003906 286.957031 240.285156 290.433594 244.816406 292.722656 C 247.667969 294.164062 247.988281 294.148438 252.101562 292.378906 C 257.636719 290 264.078125 290.015625 270.550781 292.429688 C 273.351562 293.476562 278.445312 295.277344 281.871094 296.433594 C 285.296875 297.589844 289.796875 299.167969 291.871094 299.941406 L 295.644531 301.34375 L 292.496094 304.609375 C 288.464844 308.796875 280.660156 320.476562 276.988281 327.820312 C 268 345.792969 260.320312 371.214844 251.671875 411.617188 C 250.875 415.339844 249.734375 418.996094 249.140625 419.746094 C 247.503906 421.8125 242.460938 422.179688 236.175781 420.695312 Z M 150.28125 369.683594 C 158.738281 365.421875 168.136719 356.054688 171.796875 348.234375 C 176.339844 338.53125 176.253906 338.183594 167.984375 332.585938 C 144.707031 316.835938 125.304688 285.425781 118.601562 252.644531 C 117.609375 247.792969 116.179688 241.683594 115.425781 239.070312 C 114.128906 234.566406 113.929688 234.347656 111.660156 234.894531 C 110.339844 235.214844 107.167969 236.851562 104.605469 238.539062 C 102.042969 240.222656 99.742188 241.601562 99.488281 241.601562 C 98.335938 241.601562 99.261719 238.914062 101.800781 234.910156 L 104.574219 230.539062 L 100.835938 222.949219 C 98.777344 218.773438 95.328125 212.273438 93.167969 208.5 C 89.160156 201.503906 86.574219 193.675781 86.574219 188.535156 C 86.574219 183.246094 88.144531 184.609375 90.582031 192.007812 C 94.015625 202.445312 107.867188 228.238281 110.042969 228.25 C 112.316406 228.257812 111.601562 224.960938 107.386719 216.035156 C 103.058594 206.871094 82.0625 150.214844 80.796875 144.28125 C 79.847656 139.832031 78.714844 142.847656 76.816406 154.871094 C 75.8125 161.226562 74.421875 169.03125 73.726562 172.210938 C 71.441406 182.691406 70.46875 194.480469 71.335938 201.257812 C 72.023438 206.636719 72.703125 208.359375 75.71875 212.378906 C 84.949219 224.691406 88.074219 232.292969 89.742188 246.46875 C 90.433594 252.355469 91.820312 260.171875 92.820312 263.839844 C 97.207031 279.902344 107.367188 302.699219 113.4375 310.105469 C 119.636719 317.664062 121.507812 321.972656 121.976562 329.796875 C 122.347656 336.007812 122.160156 337 119.824219 341.289062 C 115.25 349.695312 116.828125 361.785156 123.324219 368.085938 C 127.621094 372.257812 130.667969 373.253906 138.269531 372.984375 C 142.9375 372.820312 145.398438 372.144531 150.277344 369.683594 Z M 207.222656 351.421875 C 211.300781 337.234375 223.097656 317.285156 234.6875 304.964844 C 238.371094 301.046875 241.386719 297.617188 241.386719 297.335938 C 241.386719 297.058594 239.574219 295.769531 237.355469 294.46875 C 232.625 291.695312 230.710938 288.488281 230.710938 283.332031 C 230.710938 278.757812 227.71875 261.164062 225.503906 252.722656 C 224.609375 249.296875 222.359375 242.71875 220.507812 238.101562 C 217.371094 230.269531 217.113281 228.933594 216.695312 218.085938 C 216.085938 202.308594 213.816406 196.078125 200.183594 172.734375 C 197.925781 168.863281 194.902344 162.457031 193.472656 158.5 C 190.519531 150.335938 187.113281 134.898438 187.113281 129.671875 C 187.113281 123.480469 183.675781 122.972656 177.417969 128.238281 C 173.949219 131.15625 173.984375 131.605469 178.71875 144.367188 C 182.351562 154.15625 190.304688 170.453125 195.933594 179.648438 C 197.988281 183.007812 199.515625 185.90625 199.328125 186.09375 C 198.472656 186.953125 191.28125 179.589844 187.703125 174.1875 C 181.0625 164.167969 177.648438 157.148438 173.757812 145.523438 C 167.144531 125.773438 163.902344 121.410156 142.625 103.601562 C 137 98.894531 128.296875 91.1875 123.285156 86.476562 C 118.277344 81.769531 113.550781 77.914062 112.789062 77.914062 C 110.445312 77.914062 106.148438 80.550781 106.148438 81.988281 C 106.148438 85.632812 116.578125 98.71875 131.261719 113.496094 C 148.617188 130.964844 153.507812 137.9375 160.808594 155.640625 C 165.359375 166.679688 170.375 175.496094 176.074219 182.496094 C 180.152344 187.503906 179.75 188.632812 174.789062 186.070312 C 170.117188 183.652344 164.835938 176.738281 160.269531 167.054688 C 144.5 133.621094 141.84375 129.605469 124.855469 113.546875 C 113.6875 102.992188 111.238281 100.125 103.84375 88.933594 C 94.648438 75.015625 90.484375 70.796875 85.949219 70.796875 C 82.128906 70.796875 80.328125 73.597656 79.699219 80.503906 C 79.222656 85.796875 79.234375 85.828125 81.785156 86.378906 C 91.417969 88.457031 94.3125 90.996094 102.054688 104.175781 C 106.84375 112.328125 111.613281 118.757812 121.636719 130.5625 C 134.980469 146.28125 138.191406 152.492188 146.605469 178.839844 C 151.84375 195.246094 151.964844 195.71875 150.71875 194.949219 C 148.921875 193.839844 143.8125 183.421875 138.472656 169.988281 C 132.03125 153.785156 127.261719 146.085938 115.609375 133.070312 C 107.019531 123.476562 104.015625 119.316406 96.832031 107.0625 C 91.363281 97.734375 88.445312 94.683594 83.402344 93.019531 C 78.738281 91.480469 77.949219 92.617188 79.230469 99.042969 C 80.765625 106.734375 81.632812 120.617188 80.582031 120.617188 C 80.09375 120.617188 78.898438 118.511719 77.921875 115.945312 C 76.945312 113.375 75.597656 111.273438 74.929688 111.273438 C 72.757812 111.273438 71.367188 120.207031 71.738281 131.734375 C 72.121094 143.566406 72.714844 146.167969 74.667969 144.546875 C 75.34375 143.988281 75.898438 143.039062 75.898438 142.441406 C 75.898438 141.839844 76.699219 140.628906 77.679688 139.742188 C 78.902344 138.632812 79.460938 136.996094 79.460938 134.488281 C 79.46875 129.304688 81.035156 124.34375 82.996094 123.296875 C 85.757812 121.816406 89.679688 122.265625 92.894531 124.425781 C 97.371094 127.4375 108.960938 148.074219 115.558594 164.785156 C 117.460938 169.605469 122.328125 180.285156 126.375 188.519531 C 130.421875 196.757812 133.730469 203.871094 133.730469 204.332031 C 133.730469 206.125 129.453125 202.222656 125.121094 196.476562 C 119.429688 188.929688 115.011719 180.140625 112.019531 170.410156 C 110.742188 166.261719 108 159.84375 105.921875 156.144531 C 103.847656 152.441406 99.742188 145.144531 96.808594 139.921875 C 91.355469 130.222656 89.390625 128.578125 87.496094 132.121094 C 86.015625 134.886719 86.355469 137.394531 90.589844 155.042969 C 93.914062 168.90625 96.292969 176.027344 104.480469 196.675781 C 117.707031 230.027344 120.769531 238.726562 124.914062 254.734375 C 128.765625 269.617188 130.296875 273.9375 135.160156 283.617188 C 144.957031 303.121094 161.128906 321.832031 176.234375 331.136719 C 180.015625 333.464844 184.777344 336.710938 186.816406 338.347656 C 190.398438 341.226562 199.953125 352.886719 202.164062 357.082031 C 202.761719 358.210938 203.6875 358.992188 204.21875 358.8125 C 204.753906 358.636719 206.101562 355.308594 207.222656 351.421875 Z M 207.222656 351.421875 " fill-opacity="1" fill-rule="nonzero"/></g><g fill="#000000" fill-opacity="1"><g transform="translate(322.442958, 149.912005)"><g><path d="M 34.0625 0.890625 C 28.320312 0.890625 23.265625 -0.300781 18.890625 -2.6875 C 14.515625 -5.070312 11.085938 -8.660156 8.609375 -13.453125 C 6.140625 -18.242188 4.90625 -24.148438 4.90625 -31.171875 C 4.90625 -38.179688 6.140625 -44.082031 8.609375 -48.875 C 11.085938 -53.664062 14.515625 -57.253906 18.890625 -59.640625 C 23.265625 -62.023438 28.320312 -63.21875 34.0625 -63.21875 C 40.0625 -63.21875 45.15625 -62.046875 49.34375 -59.703125 C 53.539062 -57.359375 56.535156 -53.785156 58.328125 -48.984375 L 49.328125 -43.484375 L 48.265625 -43.53125 C 46.921875 -46.769531 45.101562 -49.09375 42.8125 -50.5 C 40.53125 -51.90625 37.613281 -52.609375 34.0625 -52.609375 C 28.882812 -52.609375 24.847656 -50.894531 21.953125 -47.46875 C 19.054688 -44.039062 17.609375 -38.609375 17.609375 -31.171875 C 17.609375 -23.742188 19.054688 -18.316406 21.953125 -14.890625 C 24.847656 -11.472656 28.882812 -9.765625 34.0625 -9.765625 C 42.164062 -9.765625 47.125 -13.703125 48.9375 -21.578125 L 50.015625 -21.578125 L 59.09375 -16.84375 C 57.382812 -10.925781 54.46875 -6.488281 50.34375 -3.53125 C 46.226562 -0.582031 40.800781 0.890625 34.0625 0.890625 Z M 34.0625 0.890625 "/></g></g></g><g fill="#000000" fill-opacity="1"><g transform="translate(383.571839, 149.912005)"><g><path d="M 48.34375 -38.875 L 48.34375 -62.328125 L 60.625 -62.328125 L 60.625 0 L 48.34375 0 L 48.34375 -28.390625 L 20.421875 -28.390625 L 20.421875 0 L 8.09375 0 L 8.09375 -62.328125 L 20.421875 -62.328125 L 20.421875 -38.875 Z M 48.34375 -38.875 "/></g></g></g><g fill="#000000" fill-opacity="1"><g transform="translate(452.331175, 149.912005)"><g><path d="M 20.421875 0 L 8.09375 0 L 8.09375 -62.328125 L 20.421875 -62.328125 Z M 20.421875 0 "/></g></g></g><g fill="#000000" fill-opacity="1"><g transform="translate(480.892089, 149.912005)"><g><path d="M 20.421875 -62.328125 L 20.421875 -10.3125 L 48.4375 -10.3125 L 48.4375 0 L 8.09375 0 L 8.09375 -62.328125 Z M 20.421875 -62.328125 "/></g></g></g><g fill="#000000" fill-opacity="1"><g transform="translate(531.363914, 149.912005)"><g><path d="M 30.53125 -62.328125 C 40.644531 -62.328125 48.363281 -59.710938 53.6875 -54.484375 C 59.019531 -49.253906 61.6875 -41.484375 61.6875 -31.171875 C 61.6875 -20.878906 59.019531 -13.109375 53.6875 -7.859375 C 48.363281 -2.617188 40.644531 0 30.53125 0 L 8.09375 0 L 8.09375 -62.328125 Z M 29.796875 -10.359375 C 36.222656 -10.359375 41.023438 -12 44.203125 -15.28125 C 47.390625 -18.5625 48.984375 -23.859375 48.984375 -31.171875 C 48.984375 -38.472656 47.390625 -43.765625 44.203125 -47.046875 C 41.023438 -50.328125 36.222656 -51.96875 29.796875 -51.96875 L 20.421875 -51.96875 L 20.421875 -10.359375 Z M 29.796875 -10.359375 "/></g></g></g><g fill="#000000" fill-opacity="1"><g transform="translate(597.991838, 149.912005)"><g><path d="M 8.09375 0 L 8.09375 -62.328125 L 33.125 -62.328125 C 39.570312 -62.328125 44.4375 -60.84375 47.71875 -57.875 C 51.007812 -54.90625 52.65625 -50.804688 52.65625 -45.578125 C 52.65625 -41.796875 51.691406 -38.695312 49.765625 -36.28125 C 47.847656 -33.863281 44.988281 -32.015625 41.1875 -30.734375 L 41.1875 -29.84375 C 43.144531 -28.988281 44.726562 -27.722656 45.9375 -26.046875 C 47.144531 -24.367188 48.289062 -21.882812 49.375 -18.59375 L 55.59375 0 L 42.9375 0 L 36.828125 -18.625 C 36.203125 -20.5 35.5 -21.957031 34.71875 -23 C 33.9375 -24.039062 32.941406 -24.796875 31.734375 -25.265625 C 30.523438 -25.734375 28.957031 -25.96875 27.03125 -25.96875 L 20.421875 -25.96875 L 20.421875 0 Z M 31.640625 -35.71875 C 37.609375 -35.71875 40.59375 -38.503906 40.59375 -44.078125 C 40.59375 -49.734375 37.609375 -52.5625 31.640625 -52.5625 L 20.421875 -52.5625 L 20.421875 -35.71875 Z M 31.640625 -35.71875 "/></g></g></g><g fill="#000000" fill-opacity="1"><g transform="translate(656.264646, 149.912005)"><g><path d="M 20.421875 -27.375 L 20.421875 -10.3125 L 50.171875 -10.3125 L 50.171875 0 L 8.09375 0 L 8.09375 -62.328125 L 49.5 -62.328125 L 49.5 -52.015625 L 20.421875 -52.015625 L 20.421875 -37.4375 L 45.828125 -37.4375 L 45.828125 -27.375 Z M 20.421875 -27.375 "/></g></g></g><g fill="#000000" fill-opacity="1"><g transform="translate(709.848313, 149.912005)"><g><path d="M 20.03125 0 L 8.09375 0 L 8.09375 -62.328125 L 22.21875 -62.328125 L 47.234375 -22.171875 L 48.34375 -22.34375 L 48.34375 -62.328125 L 60.203125 -62.328125 L 60.203125 0 L 47.578125 0 L 21.109375 -42.890625 L 20.03125 -42.71875 Z M 20.03125 0 "/></g></g></g><g fill="#000000" fill-opacity="1"><g transform="translate(778.181383, 149.912005)"><g/></g></g><g fill="#000000" fill-opacity="1"><g transform="translate(798.770836, 149.912005)"><g><path d="M 33.984375 0.890625 C 28.265625 0.890625 23.222656 -0.269531 18.859375 -2.59375 C 14.503906 -4.925781 11.085938 -8.488281 8.609375 -13.28125 C 6.140625 -18.070312 4.90625 -24.035156 4.90625 -31.171875 C 4.90625 -38.296875 6.140625 -44.253906 8.609375 -49.046875 C 11.085938 -53.835938 14.503906 -57.394531 18.859375 -59.71875 C 23.222656 -62.050781 28.265625 -63.21875 33.984375 -63.21875 C 39.691406 -63.21875 44.71875 -62.0625 49.0625 -59.75 C 53.414062 -57.4375 56.820312 -53.875 59.28125 -49.0625 C 61.738281 -44.257812 62.96875 -38.296875 62.96875 -31.171875 C 62.96875 -24.035156 61.738281 -18.0625 59.28125 -13.25 C 56.820312 -8.445312 53.414062 -4.890625 49.0625 -2.578125 C 44.71875 -0.265625 39.691406 0.890625 33.984375 0.890625 Z M 33.984375 -9.8125 C 39.265625 -9.8125 43.296875 -11.507812 46.078125 -14.90625 C 48.867188 -18.300781 50.265625 -23.722656 50.265625 -31.171875 C 50.265625 -38.609375 48.867188 -44.03125 46.078125 -47.4375 C 43.296875 -50.851562 39.265625 -52.5625 33.984375 -52.5625 C 28.660156 -52.5625 24.597656 -50.851562 21.796875 -47.4375 C 19.003906 -44.03125 17.609375 -38.609375 17.609375 -31.171875 C 17.609375 -23.722656 19.003906 -18.300781 21.796875 -14.90625 C 24.597656 -11.507812 28.660156 -9.8125 33.984375 -9.8125 Z M 33.984375 -9.8125 "/></g></g></g><g fill="#000000" fill-opacity="1"><g transform="translate(866.677589, 149.912005)"><g><path d="M 47.625 -62.328125 L 47.625 -52.015625 L 20.421875 -52.015625 L 20.421875 -35.515625 L 45.109375 -35.515625 L 45.109375 -25.328125 L 20.421875 -25.328125 L 20.421875 0 L 8.09375 0 L 8.09375 -62.328125 Z M 47.625 -62.328125 "/></g></g></g><g fill="#545454" fill-opacity="1"><g transform="translate(327.187026, 387.763998)"><g><path d="M 88.75 2.625 C 73.5 2.625 60.3125 -0.851562 49.1875 -7.8125 C 38.0625 -14.769531 29.476562 -25.269531 23.4375 -39.3125 C 17.394531 -53.351562 14.375 -70.707031 14.375 -91.375 C 14.375 -112.207031 18 -129.644531 25.25 -143.6875 C 32.5 -157.726562 42.5625 -168.1875 55.4375 -175.0625 C 68.3125 -181.9375 83.25 -185.375 100.25 -185.375 C 117.75 -185.375 132.664062 -182.125 145 -175.625 C 157.332031 -169.125 166 -159.457031 171 -146.625 L 144.625 -130.625 L 141.5 -130.75 C 137.75 -138.914062 132.476562 -144.875 125.6875 -148.625 C 118.894531 -152.375 110.414062 -154.25 100.25 -154.25 C 84.5 -154.25 72.457031 -149.269531 64.125 -139.3125 C 55.789062 -129.351562 51.625 -113.375 51.625 -91.375 C 51.625 -69.289062 55.519531 -53.25 63.3125 -43.25 C 71.101562 -33.25 82.625 -28.25 97.875 -28.25 C 111.039062 -28.25 120.75 -31.207031 127 -37.125 C 133.25 -43.039062 136.375 -51.875 136.375 -63.625 L 136.375 -71.5 L 93.125 -71.5 L 93.125 -100.875 L 172.25 -100.875 L 172.25 0 L 137.75 0 L 137.75 -24.5 L 135.125 -24.875 C 131.375 -16.125 125.6875 -9.351562 118.0625 -4.5625 C 110.4375 0.226562 100.664062 2.625 88.75 2.625 Z M 88.75 2.625 "/></g></g><g transform="translate(517.81644, 387.763998)"><g><path d="M 99.625 2.625 C 82.875 2.625 68.101562 -0.789062 55.3125 -7.625 C 42.519531 -14.457031 32.5 -24.894531 25.25 -38.9375 C 18 -52.976562 14.375 -70.457031 14.375 -91.375 C 14.375 -112.289062 18 -129.769531 25.25 -143.8125 C 32.5 -157.851562 42.519531 -168.289062 55.3125 -175.125 C 68.101562 -181.957031 82.875 -185.375 99.625 -185.375 C 116.375 -185.375 131.125 -181.976562 143.875 -175.1875 C 156.625 -168.394531 166.601562 -157.957031 173.8125 -143.875 C 181.019531 -129.789062 184.625 -112.289062 184.625 -91.375 C 184.625 -70.457031 181.019531 -52.957031 173.8125 -38.875 C 166.601562 -24.789062 156.625 -14.351562 143.875 -7.5625 C 131.125 -0.769531 116.375 2.625 99.625 2.625 Z M 99.625 -28.75 C 115.125 -28.75 126.957031 -33.726562 135.125 -43.6875 C 143.289062 -53.644531 147.375 -69.539062 147.375 -91.375 C 147.375 -113.207031 143.289062 -129.125 135.125 -139.125 C 126.957031 -149.125 115.125 -154.125 99.625 -154.125 C 84.039062 -154.125 72.144531 -149.125 63.9375 -139.125 C 55.726562 -129.125 51.625 -113.207031 51.625 -91.375 C 51.625 -69.539062 55.726562 -53.644531 63.9375 -43.6875 C 72.144531 -33.726562 84.039062 -28.75 99.625 -28.75 Z M 99.625 -28.75 "/></g></g><g transform="translate(716.94605, 387.763998)"><g><path d="M 89.5 -182.75 C 119.164062 -182.75 141.8125 -175.082031 157.4375 -159.75 C 173.0625 -144.414062 180.875 -121.625 180.875 -91.375 C 180.875 -61.207031 173.0625 -38.4375 157.4375 -23.0625 C 141.8125 -7.6875 119.164062 0 89.5 0 L 23.75 0 L 23.75 -182.75 Z M 87.375 -30.375 C 106.207031 -30.375 120.289062 -35.1875 129.625 -44.8125 C 138.957031 -54.4375 143.625 -69.957031 143.625 -91.375 C 143.625 -112.789062 138.957031 -128.3125 129.625 -137.9375 C 120.289062 -147.5625 106.207031 -152.375 87.375 -152.375 L 59.875 -152.375 L 59.875 -30.375 Z M 87.375 -30.375 "/></g></g></g></svg>